<svg xmlns="http://www.w3.org/2000/svg" xmlns:xlink="http://www.w3.org/1999/xlink" viewBox="0 0 200 200">
    <symbol viewBox="0 0 200 200" id="article">
        <title>cms文章管理</title>
        <path d="M165.9,3.9H28.3C16.5,3.9,7.1,13.4,7.1,25v148.3c0,11.7,9.5,21.1,21.2,21.1h137.6c11.7,0,21.2-9.5,21.2-21.1V25
	C187.1,13.4,177.6,3.9,165.9,3.9L165.9,3.9z M50.6,31.5c8.8,0,15.9,7.1,15.9,15.9c0,8.8-7.1,15.9-15.9,15.9
	c-8.8,0-15.9-7.1-15.9-15.9C34.7,38.6,41.8,31.5,50.6,31.5z M99.2,151.2H34.7v-10.6h64.5V151.2z M136,123.6H34.7V113H136V123.6
	L136,123.6z M136,96H34.7V85.4H136V96z"/>
    </symbol>
    <symbol viewBox="0 0 200 200" id="access">
        <title>rbac权限</title>
        <path d="M118.6,87.5c7.5-3.2,15.5-4.8,23.6-4.8h2.4c3.8-9.7,4.8-21.2,3-32.3C143,25,119,8,93.7,12.3C68.3,16.9,47,36.5,51.4,62.1
		c1,5.6,3.6,14.1,6.7,20.4l-45.8,66.3c-1.6,2.4-2.6,6.7-2.2,9.7l2,11.3c-2-10.9,0.6,4,2,4l15.1,0.2c3-0.6,6.5-3,8.1-5.6l18.2-28.4
		l0.2-0.2l15.9,1.2l21.2-33.1h0.2c2-2.6,4-5,6.3-7.3C105,95.1,111.5,90.7,118.6,87.5z M22.2,155.8l-2.2,1l0.2-2.4l44-64.1l2.6,2.4
		C66.9,92.9,22.2,155.8,22.2,155.8z M89.1,38.1c6.9-10.1,20.6-12.5,30.5-5.4s12.3,20.8,5.4,30.9c-6.9,10.1-14.1,3-24-4.2
		S82.1,48.2,89.1,38.1z M141.7,95.1c-26.6,0-48.4,21.6-48.4,48.2s21.6,48.2,48.4,48.2s48.4-21.6,48.4-48.2
		C189.9,116.7,168.2,95.1,141.7,95.1L141.7,95.1z M169.6,163.1c0,7.1-13.9,8.9-26.8,8.9c-13.1,0-27-1.6-27-8.9v-2
		c0-5.4,9.5-10.7,17.7-13.7c0.6-0.2,3.4-1.8,1.8-6c-4-4.2-7.1-10.7-7.1-17.5c0-10.1,6.5-15.3,14.5-15.3c7.7,0,14.5,5.4,14.5,15.3
		c0,6.5-3,13.1-7.1,17.3c-1.6,4.8,1,5.8,1.4,6c8.5,2.8,18.1,8.1,18.1,13.7L169.6,163.1z"/>
    </symbol>
    <symbol viewBox="0 0 200 200" id="access-manage">
        <title>rbac权限管理</title>
        <path d="M147.8,48.4C143.4,22.8,119.3,5.7,94,10.2C68.7,14.7,47.3,34.4,51.8,60c1,5.5,3.6,14.1,6.8,20.3l-46,66.3
		c-1.7,2.4-2.7,6.8-2.2,9.8l2,11.3c-1.9-10.9,0.5,4,2,3.9l15.1,0.2c2.9-0.5,6.6-3,8.2-5.5L55.9,138l0.2-0.2L72,139l21.2-33.3
		c0,0,4.7-9.7,22.2-19c16-7.4,29.5-5.9,29.5-5.9C148.8,71.1,149.8,59.6,147.8,48.4L147.8,48.4z M25,151.2l-4,2.5l0.9-4.5l43.1-61.7
		l3,2.1L25,151.2L25,151.2z M125.4,61.5c-7,10-14.1,3-24-4.1c-9.9-7-19-11.3-12-21.4c7-10,20.7-12.5,30.6-5.5
		C130,37.6,132.4,51.4,125.4,61.5z"/>
        <path d="M177.9,132.2c-0.8-3.1-2.1-6.1-3.7-8.9l7-10.6l0,0l-10-10l0,0l-10.6,7c-2.8-1.6-5.8-2.9-8.9-3.7l-2.5-12.4H135l-2.5,12.4
		c-3.1,0.8-6.1,2.1-8.9,3.7l-10.6-7l-10,10l7,10.6c-1.6,2.8-2.9,5.8-3.7,8.9l-12.4,2.5v14.2l12.4,2.5c0.8,3.1,2.1,6.1,3.7,8.9
		l-7,10.6l10,10l10.6-7c2.8,1.6,5.8,2.8,8.9,3.7L135,190h14.2l2.5-12.4c3.1-0.8,6.1-2.1,8.9-3.7l10.6,7l0,0l10-10l0,0l-7-10.6
		c1.6-2.8,2.9-5.8,3.7-8.9l12.4-2.5v-14.2L177.9,132.2L177.9,132.2z M142.1,158.5c-9.3,0-16.7-7.5-16.7-16.8
		c0-9.3,7.5-16.7,16.8-16.7c9.3,0,16.7,7.5,16.7,16.8C158.9,151,151.4,158.5,142.1,158.5L142.1,158.5z"/>
    </symbol>
    <symbol viewBox="0 0 200 200" id="good">
        <title>商品管理</title>
        <path class="st0" d="M98.1,88.3c-3.8,0-7.7-0.8-10.8-2.3l-60-30c-4.6-1.5-6.9-4.6-6.9-8.5c0-3.8,2.3-6.9,6.2-9.2L87.3,7.5
		C90.4,6,95,5.2,98.9,5.2c3.8,0,7.7,0.8,10.8,2.3l60,29.2c3.8,2.3,6.2,5.4,6.2,9.2c0,3.8-2.3,6.9-6.2,9.2L108.9,86
		C106.5,87.5,101.9,88.3,98.1,88.3L98.1,88.3z M85.8,196c-2.3,0-3.8-0.8-6.2-1.5l-53.1-27.7c-6.2-3.1-11.5-10-11.5-15.4V75.2
		c0-5.4,3.8-9.2,9.2-9.2c1.5,0,3.8,0.8,5.4,1.5l53.8,27.7c6.2,3.1,11.5,10,11.5,15.4V186C95,192.1,90.4,196,85.8,196L85.8,196z
		 M114.2,196c-5.4,0-9.2-3.8-9.2-9.2v-75.4c0-6.2,4.6-12.3,11.5-15.4l53.8-28.5c1.5-0.8,3.8-1.5,5.4-1.5c5.4,0,9.2,3.8,9.2,9.2v75.4
		c0,6.2-4.6,12.3-11.5,15.4l-53.8,28.5C118.1,195.2,116.5,196,114.2,196L114.2,196z"/>
    </symbol>
    <symbol viewBox="0 0 200 200" id="merchant-manage">
        <title>商户管理</title>
        <path d="M166.6,135.3c0-9.7-7.8-17.5-17.5-17.5c-9.7,0-17.5,7.8-17.5,17.5c0,9.7,7.8,17.5,17.5,17.5h0
		C158.8,152.8,166.6,145,166.6,135.3z"/>
        <path d="M35.7,33.6h128.5c2.1,0,4.1-0.8,5.5-2.3c1.5-1.5,2.3-3.6,2.2-5.7c0.1-4.2-3.1-7.8-7.2-7.9c-0.2,0-0.3,0-0.5,0l-128.5,0
		c-4.1-0.1-7.6,3.2-7.7,7.4c0,0.2,0,0.3,0,0.5C28,30.2,31.3,33.6,35.7,33.6z"/>
        <polygon points="166.8,40.4 166.8,40.4 166.8,40.4 167.1,40.7 167.1,40.7 	"/>
        <path d="M55.2,88.8c6-1.6,9.7,16.6,20.5,16.8c10.8,0.1,16.6-5.4,22.9-16.4c3.9-4.1,5.8,3.3,7.5,6.4c0.8,1.5,2.4,4.1,4.9,6.5
		l7.7-7.7l11,7.3c2.6-1.5,5.4-2.7,8.3-3.6c0.4-0.6,0.9-1.3,1.3-2l2.3-11.2h14.8l2.6,13c3.2,0.9,6.4,2.2,9.3,3.8l11-7.3l0,0l4.4,4.4
		c3.8-4.7,6.1-10.7,6.1-16.8L174,40.7l-6.9,0l1.2,1.3l-1.2-1.3l-141.7,0v0h0L10,82.1c0,12.4,10,24.5,22.3,24.5
		C44.7,106.6,50.5,90.3,55.2,88.8z"/>
        <path d="M139.1,172.7c-3.2-0.9-6.4-2.2-9.3-3.8l-11.1,7.3l-10.5-10.5l7.3-11c-1.7-2.9-3-6.1-3.8-9.3l-13-2.6v-14.8l13-2.6
		c0.5-1.8,1.1-3.7,1.9-5.4c-0.1,0-0.1,0-0.2-0.1c-6.1-2.5-10.9-7.4-13.3-13.6c-3.8,9.4-12.7,15.5-22.6,15.4
		c-9.8,0-18.7-6.1-22.4-15.4c-4.7,11.9-17.6,18.1-29.6,14.4v51.2c0,4.8,5.1,10.5,9.8,10.5H141L139.1,172.7z"/>
        <path d="M168.4,168.8c-2.9,1.7-6,3-9.3,3.8l-1.9,9.6h7.5c4.3,0,9-5,9.7-9.5L168.4,168.8z"/>
    </symbol>
    <symbol viewBox="0 0 200 200" id="client-manage">
        <title>客户管理</title>
        <path class="st0" d="M115.3,84.1c-5.7,2.4-10.9,5.5-15.7,9.4c-4.8,3.9-8.9,8.4-12.3,13.4c-3.5,5-6.2,10.6-8.1,16.5
		c-1.9,6-2.9,12.3-2.9,18.9c0,5.8,0.8,11.4,2.3,16.7c1.5,5.3,3.6,10.3,6.3,15h-4.5c-3.2,0-7-0.1-11.3-0.3c-4.3-0.2-8.8-0.5-13.4-0.9
		c-4.6-0.4-9.2-0.8-13.7-1.3c-4.5-0.5-8.7-1-12.3-1.6c-3.7-0.6-6.8-1.1-9.4-1.7c-2.6-0.6-4.2-1.1-4.9-1.7c-1.2-0.9-2.2-3.7-2.8-8.3
		c-0.6-4.6-0.4-10.6,0.8-17.9c0.4-2.8,1.4-5.1,2.8-6.9c1.4-1.8,3.1-3.3,5.1-4.6c2-1.3,4.3-2.3,6.7-3.1c2.5-0.8,5-1.5,7.6-2.3
		c2.6-0.7,5.1-1.5,7.5-2.4c2.4-0.8,4.6-1.9,6.6-3.1c2.4-1.5,4.2-2.9,5.5-4.3c1.3-1.4,2.2-2.8,2.8-4.1c0.6-1.3,0.8-2.7,0.8-4.2
		c0-1.5-0.1-3.1-0.2-4.9c-0.2-2.6-1.1-4.6-2.7-6.1c-1.6-1.5-3.3-3.1-5.2-4.6c-0.9-0.8-1.7-1.9-2.4-3.3c-0.7-1.4-1.4-2.8-1.9-4.3
		c-0.6-1.7-1.1-3.4-1.7-5.2c-0.8-0.2-1.6-0.6-2.4-1.2c-0.7-0.6-1.4-1.3-2.2-2.4c-0.8-1-1.5-2.5-2-4.4c-0.6-1.9-0.8-3.6-0.7-5.2
		c0.1-1.6,0.4-3,1-4.2c0.4-1.2,1.2-2.4,2.2-3.5c0-4.3,0.2-8.5,0.7-12.8c0.4-3.6,1.2-7.4,2.4-11.6c1.1-4.1,2.9-7.8,5.2-11.1
		c2.2-3.1,4.6-5.7,7.2-7.6c2.6-2,5.3-3.5,8.1-4.6c2.8-1.1,5.6-1.9,8.3-2.3c2.7-0.4,5.4-0.6,8-0.6c3.2,0,6.5,0.4,9.7,1.1
		c3.2,0.7,6.2,1.7,9,2.9c2.8,1.2,5.3,2.6,7.5,4.2c2.2,1.6,3.9,3.1,5.1,4.7c2.9,3.6,5,7.5,6.4,11.8c1.3,4.3,2.3,8.4,2.9,12.3
		c0.6,4.5,0.8,9,0.8,13.6c0.8,0.6,1.4,1.3,1.8,2.2c0.4,0.8,0.8,1.8,1.1,3c0.3,1.2,0.3,2.7,0.1,4.5c-0.2,2.5-0.7,4.4-1.4,5.8
		c-0.7,1.4-1.5,2.5-2.4,3.3c-1,0.9-2.1,1.5-3.2,1.8c-0.2,0.7-0.4,1.4-0.7,2.2l-0.8,2.4C115.9,82.4,115.6,83.2,115.3,84.1L115.3,84.1
		L115.3,84.1L115.3,84.1 M139.3,89.5c7.3,0,14.1,1.4,20.6,4.2c6.4,2.8,12,6.6,16.8,11.4c4.8,4.8,8.5,10.4,11.3,16.9
		c2.8,6.4,4.2,13.3,4.2,20.6c0,7.3-1.4,14.1-4.2,20.6c-2.8,6.4-6.6,12.1-11.3,16.9c-4.8,4.8-10.4,8.6-16.8,11.3
		c-6.4,2.7-13.3,4.1-20.6,4.1c-7.4,0-14.3-1.4-20.7-4.1c-6.4-2.7-12-6.5-16.8-11.3c-4.8-4.8-8.5-10.4-11.3-16.9
		c-2.8-6.4-4.2-13.3-4.2-20.6c0-7.3,1.4-14.1,4.2-20.6c2.8-6.4,6.6-12.1,11.3-16.9c4.8-4.8,10.4-8.6,16.8-11.4
		C125,90.9,131.9,89.5,139.3,89.5L139.3,89.5L139.3,89.5L139.3,89.5 M170.2,132.2c0.7-2.2,0.4-4.3-0.9-6.1c-1.3-1.8-3-3.2-5.1-3.9
		c-2.1-0.8-4.3-0.8-6.4-0.2c-2.1,0.7-3.7,2.4-4.7,5.2c-0.6,1.9-1.1,3.7-1.6,5.3c-0.5,1.6-1,3.3-1.5,5.1c-0.5,1.8-1.1,3.7-1.8,5.8
		c-0.7,2.1-1.7,4.5-2.8,7.1c-1.1,2.9-2.7,4.3-4.8,4.1c-2.1-0.2-3.7-1.4-4.8-3.6c-1.2-2.2-2.4-4.6-3.4-7.2c-1.1-2.6-2.1-5.1-3.1-7.6
		c-1-2.5-1.9-4.7-2.7-6.7c-0.8-2-1.5-3.6-2-4.9c-0.9-1.8-2.4-2.8-4.5-3c-2.1-0.2-4.1,0.1-6,0.9c-2,0.8-3.6,2.2-4.9,3.9
		c-1.3,1.8-1.5,3.8-0.6,5.9c0.8,2.2,1.7,4.8,2.7,7.6c1,2.8,2.1,5.7,3.2,8.6c1.1,2.9,2.2,5.8,3.2,8.6c1,2.8,1.9,5.2,2.7,7.2
		c1.7,4.3,4.2,7.4,7.6,9.6c3.4,2.1,7,3.2,10.8,3.4c3.8,0.1,7.3-0.7,10.8-2.5c3.4-1.8,5.9-4.5,7.5-8.1c1.2-2.9,2.5-6,3.8-9.2
		c1.3-3.2,2.5-6.3,3.7-9.3c1.2-3,2.3-5.9,3.3-8.7C168.7,136.6,169.5,134.2,170.2,132.2L170.2,132.2L170.2,132.2L170.2,132.2
		 M170.2,132.2"/>
    </symbol>
    <symbol viewBox="0 0 200 200" id="msg">
        <title>短信管理</title>
        <path d="M173.6,26.4H26.4c-9,0-16.4,7.3-16.4,16.4v114.5c0,9,7.3,16.4,16.4,16.4h147.3c9,0,16.4-7.3,16.4-16.4V42.7
	C190,33.7,182.7,26.4,173.6,26.4z M172.4,61.5L105.7,104c-1.8,1.2-9.7,1.2-11.5,0L27.6,61.5c-3.1-2.1-3.9-6.3-1.8-9.4
	c2.1-3.1,6.3-3.9,9.4-1.8L100,91.6l64.8-41.2c3.1-2.1,7.3-1.3,9.4,1.8C176.3,55.2,175.5,59.4,172.4,61.5z"/>
    </symbol>
    <symbol viewBox="0 0 200 200" id="log">
        <title>站点日志</title>
        <path d="M27.2,196.9c0,1.2-1.2,1.2-1.2,1.2H11.2c-1.2,0-1.2-1.2-1.2-1.2V3.2c0-1.2,1.2-2.5,1.2-2.5h13.6C26,0.8,26,2,26,2v194.9
	L27.2,196.9L27.2,196.9z M150.5,92l-24.6-13.6l45.7-77.7H43.3c-3.7,0-7.4,3.7-7.4,7.4v187.4c0,2.5,1.2,3.7,3.7,3.7h133.2
	c9.8,0,17.3-7.4,17.3-17.3V25.4L150.5,92L150.5,92z M120.9,115.4l3.7-33.3l24.6,13.6L120.9,115.4z"/>
    </symbol>
    <symbol viewBox="0 0 200 200" id="account">
        <title>结算管理</title>
        <path d="M10.3,24.7V94h83.7V10.3H24.7C16.9,10.3,10.3,16.9,10.3,24.7z M33.1,48h15V33h8.4v15h15v8.4h-15v15H48v-15h-15V48z
	 M106,189.7h70c7.8,0,14.4-6.6,14.4-14.4V106H106V189.7z M128.7,136.5H167v8.4h-38.3V136.5z M128.7,150.8H167v8.4h-38.3V150.8z
	 M175.4,10.3H106V94h83.7V24.7C189.7,16.9,183.2,10.3,175.4,10.3z M168.2,56.3h-38.3V48h38.3V56.3z M10.3,175.3
	c0,7.8,6.6,14.4,14.4,14.4h69.4V106H10.3V175.3z M35.4,137.1l6-6l10.8,10.8L63,131.1l6,6l-11.4,10.8l10.8,10.8l-6,6l-10.2-10.8
	l-10.8,10.8l-1.2-1.8l-3-3l-1.2-1.2l10.2-10.8L35.4,137.1z"/>
    </symbol>
    <symbol viewBox="0 0 200 200" id="menu">
        <title>菜单管理</title>
        <path class="st0" d="M188.6,65.5l-42.7,42.7c-3,3-7.7,3-10.7,0L92.6,65.5c-3-3-3-7.7,0-10.7l42.7-42.5c3-3,7.7-3,10.7,0L188.6,55
		C191.6,57.8,191.6,62.7,188.6,65.5L188.6,65.5z M78.7,190H18.4c-4.2,0-7.5-3.3-7.5-7.5v-60.4c0-4.2,3.3-7.5,7.5-7.5h60.4
		c4.2,0,7.5,3.3,7.5,7.5v60.4C86.3,186.7,82.9,190,78.7,190L78.7,190z M78.7,99.5H18.4c-4.2,0-7.5-3.3-7.5-7.5V31.6
		c0-4.2,3.3-7.5,7.5-7.5h60.4c4.2,0,7.5,3.3,7.5,7.5v60.4C86.3,96.2,82.9,99.5,78.7,99.5L78.7,99.5z M108.9,114.6h60.4
		c4.2,0,7.5,3.3,7.5,7.5v60.4c0,4.2-3.3,7.5-7.5,7.5h-60.4c-4.2,0-7.5-3.3-7.5-7.5v-60.4C101.3,117.9,104.7,114.6,108.9,114.6
		L108.9,114.6z"/>
    </symbol>
    <symbol viewBox="0 0 200 200" id="admin">
        <title>行政管理</title>
        <path class="st0" d="M24.3,110.1c11-11.5,47-46.2,88.3-57.9c0,0,14.2-5.8-4.7-4.2c0,0-56.9,4.9-93.2,53.9c-1.2,1.7-3.9,0.8-4-1.2
		c-0.6-16.9,3-63,58.1-69.2c0.3,0,0.6-0.1,1-0.1c65.4-6.7,70,1.5,116.7-11.3c2.1-0.6,3.7,2,2.2,3.6c-18.9,20.4-87.8,88.7-162.7,90.3
		C23.9,113.9,22.9,111.5,24.3,110.1z"/>
        <path class="st0" d="M112.7,97.4c-3.4,0.5-6.2,1.7-8.1,2.7l-50.4,37.7c-0.2,0.3-0.4,0.8-0.6,1.3c-1.1,15.1,14.2,10.6,14.2,10.6
		l34.9-23.6c16.8-5.2,15.9,5.4,13.6,10.3c-0.6,1.3-1.5,1.9-1.5,1.9l-41.1,24.9H15.6c-0.7,0.2-1.2,0.3-1.6,0.5
		c-7.2,6.6-3,12.9-1.1,15.1c0.4,0.3,1,0.6,1.6,0.8l85.1,0.5l49.4-37l37.9-0.8c1.6,0,3-1.4,3-3l0.1-39.1c0-1.7-1.4-3-3-3L112.7,97.4
		L112.7,97.4z"/>
    </symbol>
    <symbol viewBox="0 0 200 200" id="setting">
        <title>设置</title>
        <path class="st0" d="M130.8,100.1c-0.5-2.6-3-5.3-5.7-5.9l-2-0.5c-4.6-1.4-8.7-4.5-11.4-9c-2.6-4.5-3.2-9.7-2.1-14.4l0,0l0.6-1.9
			c0.8-2.6-0.2-6.1-2.3-7.9c0,0-1.9-1.6-7.1-4.6c-5.2-3-7.5-3.8-7.5-3.8c-2.5-0.9-6.1,0-8,1.9l-1.4,1.5c-3.5,3.3-8.2,5.3-13.5,5.3
			s-10-2-13.5-5.4l-1.3-1.4c-1.8-2-5.4-2.9-8-1.9c0,0-2.3,0.8-7.5,3.8c-5.2,3-7.1,4.6-7.1,4.6c-2.1,1.7-3.1,5.3-2.3,7.8l0.6,1.9
			c1.1,4.7,0.5,9.9-2.1,14.4c-2.6,4.5-6.8,7.6-11.4,9l-1.9,0.4c-2.6,0.6-5.2,3.3-5.7,5.9c0,0-0.4,2.4-0.4,8.4s0.4,8.4,0.4,8.4
			c0.5,2.7,3,5.3,5.7,5.9l1.9,0.4l0,0c4.7,1.4,8.8,4.5,11.5,9c2.6,4.5,3.2,9.7,2.1,14.4l0,0l-0.5,1.8c-0.8,2.6,0.2,6.1,2.3,7.9
			c0,0,1.9,1.6,7.1,4.6s7.5,3.8,7.5,3.8c2.5,0.9,6.1,0,8-1.9l1.3-1.4c3.5-3.4,8.3-5.4,13.5-5.4s10,2.1,13.5,5.4l0,0l1.3,1.4
			c1.8,2,5.4,2.9,8,1.9c0,0,2.3-0.8,7.5-3.8c5.2-3,7.1-4.6,7.1-4.6c2.1-1.7,3.1-5.3,2.3-7.9l-0.6-1.9c-1.1-4.7-0.5-9.8,2.1-14.4
			c2.6-4.5,6.8-7.7,11.5-9l0,0l1.9-0.4c2.6-0.6,5.2-3.3,5.7-5.9c0,0,0.4-2.4,0.4-8.4C131.2,102.4,130.8,100.1,130.8,100.1
			L130.8,100.1 M70.6,132.7c-13.3,0-24.2-10.8-24.2-24.2c0-13.3,10.8-24.1,24.2-24.1c13.3,0,24.2,10.8,24.2,24.2
			C94.8,121.8,84,132.7,70.6,132.7L70.6,132.7 M70.6,132.7"/>
        <path class="st0" d="M188.7,59c0.1-1.7-1-3.7-2.5-4.5l-1.1-0.6c-2.6-1.6-4.6-4.2-5.4-7.3c-0.8-3.2-0.4-6.4,1.1-9.1l0,0l0.7-1
			c0.9-1.4,0.9-3.8-0.1-5.2c0,0-0.9-1.3-3.5-4c-2.7-2.7-3.9-3.6-3.9-3.6c-1.4-1-3.7-1-5.2-0.1l-1.1,0.7c-2.7,1.4-5.9,1.9-9.1,1
			c-3.2-0.9-5.7-2.9-7.3-5.5l-0.6-1.1c-0.8-1.5-2.8-2.6-4.5-2.5c0,0-1.5,0.1-5.2,1.1c-3.7,1-5.1,1.6-5.1,1.6
			c-1.5,0.7-2.7,2.7-2.7,4.4l0,1.2c-0.1,3.1-1.3,6.1-3.7,8.4c-2.3,2.3-5.4,3.5-8.4,3.6l-1.2-0.1c-1.7-0.1-3.7,1.1-4.4,2.7
			c0,0-0.7,1.4-1.7,5c-1,3.7-1.1,5.2-1.1,5.2c-0.2,1.7,1,3.7,2.5,4.5l1.1,0.6l0,0c2.6,1.6,4.6,4.2,5.5,7.4c0.8,3.2,0.4,6.4-1.1,9.1
			l0,0l-0.6,1c-0.9,1.4-0.9,3.8,0.1,5.2c0,0,0.9,1.3,3.5,4c2.7,2.7,3.9,3.6,3.9,3.6c1.4,1,3.7,1,5.2,0.1l1-0.6
			c2.7-1.5,5.9-1.9,9.1-1c3.2,0.9,5.8,2.9,7.3,5.5l0,0l0.6,1.1c0.8,1.5,2.8,2.6,4.5,2.5c0,0,1.5-0.1,5.2-1.1c3.7-1,5.1-1.6,5.1-1.6
			c1.5-0.7,2.8-2.7,2.7-4.4l0-1.3c0.1-3,1.3-6.1,3.7-8.4c2.3-2.3,5.4-3.5,8.5-3.6l0,0l1.2,0c1.7,0.1,3.7-1.1,4.4-2.7
			c0,0,0.7-1.4,1.7-5C188.6,60.5,188.7,59,188.7,59L188.7,59 M146.7,68.9c-8.1-2.2-12.9-10.6-10.7-18.7c2.2-8.1,10.6-12.9,18.7-10.7
			c8.1,2.2,12.9,10.6,10.7,18.7C163.2,66.3,154.8,71.1,146.7,68.9L146.7,68.9 M146.7,68.9"/>
        <path class="st0" d="M190,152.9c0.1-1.4-0.8-3.2-2.1-3.9l-1-0.5c-2.2-1.4-3.9-3.6-4.6-6.3c-0.7-2.7-0.3-5.5,1-7.8l0,0l0.6-0.9
			c0.8-1.2,0.7-3.2-0.1-4.4c0,0-0.7-1.1-3-3.4c-2.3-2.3-3.4-3.1-3.4-3.1c-1.2-0.8-3.2-0.9-4.4-0.1l-0.9,0.6
			c-2.3,1.2-5.1,1.6-7.8,0.9c-2.7-0.7-4.9-2.5-6.3-4.7l-0.5-0.9c-0.7-1.3-2.4-2.3-3.9-2.1c0,0-1.3,0.1-4.5,0.9
			c-3.2,0.8-4.3,1.4-4.3,1.4c-1.3,0.6-2.4,2.3-2.3,3.8l0,1.1c-0.1,2.6-1.1,5.2-3.1,7.2c-2,2-4.6,3-7.2,3.1l-1.1,0
			c-1.4-0.1-3.2,1-3.8,2.3c0,0-0.6,1.2-1.4,4.3s-1,4.4-1,4.4c-0.1,1.5,0.8,3.2,2.1,3.9l0.9,0.5l0,0c2.2,1.4,4,3.6,4.7,6.3
			c0.7,2.7,0.3,5.5-1,7.8l0,0l-0.5,0.9c-0.8,1.2-0.7,3.2,0.1,4.4c0,0,0.7,1.1,3,3.4c2.3,2.3,3.4,3.1,3.4,3.1
			c1.2,0.8,3.2,0.9,4.4,0.1l0.9-0.5c2.3-1.2,5.1-1.6,7.8-0.9c2.7,0.7,4.9,2.5,6.3,4.7l0,0l0.5,0.9c0.7,1.3,2.4,2.3,3.9,2.1
			c0,0,1.3-0.1,4.5-0.9c3.2-0.8,4.3-1.4,4.3-1.4c1.3-0.6,2.4-2.3,2.3-3.8l0-1.1c0.1-2.6,1.1-5.2,3.1-7.2c2-2,4.6-3,7.2-3.1l0,0l1,0
			c1.4,0.1,3.2-1,3.8-2.3c0,0,0.6-1.2,1.4-4.3C189.9,154.2,190,152.9,190,152.9L190,152.9 M154,161.4c-6.9-1.9-11.1-9.1-9.2-16
			c1.9-6.9,9.1-11,16-9.2c6.9,1.9,11.1,9.1,9.2,16C168.1,159.2,161,163.3,154,161.4L154,161.4 M154,161.4"/>
    </symbol>
    <symbol viewBox="0 0 200 200" id="inventory">
        <title>进销存管理</title>
        <polygon class="st0" points="138,23.3 125.1,23.3 125.1,10.4 73.7,10.4 73.7,23.3 60.8,23.3 60.8,49 138,49 138,23.3 	"/>
        <path class="st0" d="M163.7,23.3h-12.9v38.6H48.4V23.3H35.1C20.9,23.3,9.4,34.8,9.4,49v115.7c0,14.2,11.5,25.7,25.7,25.7h128.6
		c14.2,0,25.7-11.5,25.7-25.7V49C189.4,34.8,177.9,23.3,163.7,23.3L163.7,23.3z M60.8,139H48v-12.9h12.9V139L60.8,139z M60.8,100.4
		H48V87.5h12.9V100.4L60.8,100.4z M150.8,139H73.7v-12.9h77.1V139L150.8,139z M150.8,100.4H73.7V87.5h77.1V100.4L150.8,100.4z"/>
    </symbol>
    <symbol viewBox="0 0 200 200" id="trend">
        <title>金价管理</title>
        <path d="M190,174.3c0,8.6-7,15.7-15.7,15.7l0,0H25.7C17,190,10,183,10,174.3l0,0v-73.6l54.8-27.4L119.6,93L190,46V174.3z"/>
        <polygon points="119.6,68.7 64.8,45.2 10,72.6 10,57 64.8,29.6 119.6,53 154.8,25.7 139.1,10 190,17.8 	"/>
    </symbol>
    <symbol viewBox="0 0 200 200" id="store">
        <title>门店管理</title>
        <path d="M100.5,20.7H34.7c-4.4,0-5.9,0.4-9.9,2.9c-31.7,19.7-5.1,94.4,25,38.8c0,0,25.1,46.5,50.7,0.2c25.6,46.4,50.7-0.2,50.7-0.2
	c33.8,62.6,62.5-41.6,11.8-41.6H100.5z M21.6,93.8v58.9c0,9.9,6,18.7,14.6,23.2c3.7,1.9,13.2,2.9,24.3,2.9c15.1,0,30.1,0,45.2,0
	v-53.4h42.2v52.9c8.3,0,13.2,0.8,20.6-4.4c7-5,11-13.1,11-22.2V93.8L21.6,93.8L21.6,93.8z"/>
    </symbol>
    <symbol viewBox="0 0 200 200" id="home">
        <title>主页</title>
        <path d="M162.4,108.7C148,97,133.9,85.2,119.6,73.5c-6.6-5.4-13-10.8-19.6-16.2c-0.5,0.4-1.1,0.7-1.5,1.1
		C77.9,75.3,57.5,92.2,37,109.2c-0.7,0.6-1.3,2-1.3,3.1c-0.1,17.1-0.1,34.2,0,51.4c0,5.3,2.8,8,8.2,8c13.1,0,26.4,0,39.5,0
		c0.7,0,1.4-0.1,2.3-0.2c0-14.3,0-28.4,0-42.6c9.5,0,18.9,0,28.4,0c0,14.1,0,28.3,0,42.7c1.1,0,1.8,0,2.5,0c13,0,26,0,39.1,0
		c5.8,0,8.5-2.7,8.5-8.5c0-16.8,0-33.7,0-50.4C164.2,111,163.7,109.9,162.4,108.7z"/>
        <path d="M187.4,97.1c-6.7-5.6-13.3-11.2-20.2-16.6c-2.3-1.8-3.2-3.7-3.1-6.7c0.2-13.5,0.1-26.9,0.1-40.4c0-3.2-1.1-4.6-3.8-4.6
		c-7-0.1-14-0.1-21,0c-2.4,0-3.7,1.3-3.8,3.8c-0.1,2.2,0,4.5,0,6.7c0,4.8,0,9.5,0,14.8c-1.1-0.9-1.7-1.4-2.3-1.9
		c-7.7-6.5-15.6-13-23.3-19.4c-6.8-5.7-13.2-5.7-20.1,0C75.7,44.5,61.4,56.4,47.2,68.1c-11.5,9.6-23,19.3-34.6,28.9
		c-3.3,2.8-3.4,4.2-0.6,7.6c1.6,1.9,3.2,3.9,4.9,5.8c2.4,2.9,4,3.1,6.9,0.6c19.3-16,38.3-31.9,57.5-48c6.2-5.1,12.4-10.3,18.7-15.6
		c6.3,5.2,12.4,10.3,18.6,15.5c19.2,16,38.4,32,57.6,48.1c2.9,2.4,4.5,2.2,6.9-0.7c1.7-2,3.3-4,5-5.9
		C190.7,101.3,190.5,99.8,187.4,97.1z"/>
    </symbol>
    <defs >
        <g id="merchant" transform="translate(305.000000, 528.000000)">
            <path id="Fill-1" d="M-269.4-492.6h128.7c4.2,0,7.5-3.3,7.8-7.5v-0.3c0-4.2-3.3-7.5-7.5-7.8h-0.3h-128.7c-4.2,0-7.5,3.3-7.8,7.5
		v0.3C-277.2-495.9-273.9-492.6-269.4-492.6z M-138.3-486l1.5,1.5L-138.3-486z M-131.1-485.7h-148.5l-15.3,40.2
		c0,12,9.9,21.9,22.5,21.9c12.3,0,22.5-9.6,22.5-21.9c0,12,9.9,21.9,22.5,21.9c12.3,0,22.5-9.6,22.5-21.9c0,12,9.9,21.9,22.5,21.9
		c12.3,0,22.5-9.6,22.5-21.9c0,12,9.9,21.9,22.5,21.9c12.3,0,22.5-9.6,22.5-21.9L-131.1-485.7L-131.1-485.7z M-137.7-407.4
		c-9.9,0-18.9-5.7-22.5-15c-3.6,9-12.6,15-22.5,15s-18.6-6-22.5-15c-3.9,9-12.9,15-22.5,15c-9.9,0-18.6-6-22.5-15
		c-4.8,11.4-17.7,17.7-29.7,13.8v49.5c0,4.5,5.1,10.2,9.9,10.2h129.3c4.5,0,9.9-5.7,9.9-10.2v-49.5
		C-132.9-407.7-135.3-407.4-137.7-407.4L-137.7-407.4z"/>
        </g>

    </defs>
    <defs>
        <g  id="merchant-to-check" transform="translate(290.000000, 352.000000)">
            <title>商户待审核</title>
            <path id="Fill-3" d="M-248.5-328.1c-3.2,0-6.4,1.9-7.7,5.1l-12.2,32.1v0.6c0,5.8,2.6,11.6,6.4,15.4c3.9,3.9,9.6,5.8,14.8,5.8
		c5.8,0,10.9-2.6,14.1-6.4l3.9-4.5l3.9,4.5c0.6,0.6,0.6,0.6,1.3,1.3c8.4,7.7,21.2,7.1,28.9-1.3l3.9-4.5l3.9,4.5
		c0.6,0.6,0.6,0.6,1.3,1.3c3.9,3.9,9.6,5.8,14.8,5.8c5.8,0,10.9-2.6,14.1-6.4l3.9-4.5l3.9,4.5c3.9,4.5,9.6,6.4,15.4,6.4l0,0
		c11.6,0,20.6-9.6,20.6-20.6v-0.6l-12.7-33.4c-1.2-3.6-2.2-5.1-7.2-5.1 M-170.7-257.4c-7.1,0-13.5-2.6-19.3-6.4
		c-11.6,8.4-27,9-38.6,0c-12.2,9-29.6,9-41.1-1.9c-6.4-5.8-10.3-14.8-10.3-23.8c0-1.3,0-3.2,0.6-4.5l12.2-32.1
		c3.2-7.7,10.3-12.9,18.6-12.9h117c8.4,0,15.4,5.1,18.6,12.9l12.2,32.1c0.6,1.3,0.6,3.2,0.6,4.5c0,17.4-14.1,32.1-32.1,32.1l0,0l0,0
		c-7.1,0-13.5-2.6-19.3-6.4c-5.1,3.9-11.6,6.4-18,6.4C-170.1-257.4-170.1-257.4-170.7-257.4"/>
            <path id="Fill-5" d="M-192.6-220.1h-43.1c-2.6,0-5.1-1.9-5.1-5.1v-1.3c0-2.6,1.9-5.1,5.1-5.1h43.1c2.6,0,5.1,1.9,5.1,5.1v1.3
		C-187.4-222.1-189.4-220.1-192.6-220.1"/>
            <path id="Fill-7" d="M-201.6-176.4h-43.7c-7.1,0-12.9-5.8-12.9-12.9v-57.2c0-3.2-2.6-5.8-5.8-5.8s-5.8,2.6-5.8,5.8v57.2
		c0,13.5,10.9,24.4,24.4,24.4h43.7c3.2,0,5.8-2.6,5.8-5.8C-196.4-173.8-199-176.4-201.6-176.4"/>
            <path id="Fill-9" d="M-147.6-236.8c-6.4,0-11.6,4.5-11.6,10.3c0,3.9,3.2,7.7,7.7,9.6l3.2,1.3l3.9-1.3c4.5-1.3,7.7-5.1,7.7-9.6
		C-136-232.3-141.1-236.8-147.6-236.8z M-176.5-188.6c-1.3,0-2.6,0.6-2.6,1.9v10.3c0,0.6,1.3,1.9,2.6,1.9h57.9
		c1.3,0,2.6-0.6,2.6-1.9v-10.3c0-0.6-1.3-1.9-2.6-1.9h-10.3l-18.6-23.1l-18.6,23.1H-176.5z M-118.6-165.5h-57.9
		c-6.4,0-12.2-5.1-12.2-10.9v-10.3c0-6.4,5.1-10.9,12.2-10.9h5.8l10.3-13.5c-5.1-3.9-8.4-9-8.4-15.4c0-10.9,9.6-19.3,21.2-19.3
		s21.2,9,21.2,19.3c0,6.4-3.2,12.2-8.4,15.4l10.3,12.9h5.8c6.4,0,12.2,5.1,12.2,10.9v10.3C-106.4-170.6-112.2-165.5-118.6-165.5z"/>
        </g>
    </defs>
    <defs>
        <g id="checked">
            <title>已审核</title>
            <path id="path-1_1_" d="M24.4,10h151.2c7.9,0,14.4,6.5,14.4,14.4v151.2c0,7.9-6.5,14.4-14.4,14.4H24.4c-7.9,0-14.4-6.5-14.4-14.4
		V24.4C10,16.5,16.5,10,24.4,10z"/>
            <path id="形状_5_拷贝" class="st0" fill="#fff" d="M158.5,153H41.2c-0.8,0-1.6,0.3-2.1,0.8c-0.5,0.5-0.8,1.3-0.8,2.1v2.9
		c0,0.8,0.3,1.6,0.8,2.1c0.5,0.5,1.3,0.8,2.1,0.8h117.3c0.8,0,1.6-0.3,2.1-0.8c0.5-0.5,0.8-1.3,0.8-2.1v-2.9
		C161.1,154.3,160.1,153.3,158.5,153L158.5,153z"/>
            <g id="矩形_x5F_6-_x2B_-矩形_x5F_6_x5F_拷贝-Mask" transform="translate(29.000000, 23.000000)">
                <g id="Mask_1_">
                    <path id="path-3_1_" class="st0" fill="#fff" d="M23.4,124.8h98c3.1-0.3,2.9,0.5,2.9-2.9v-7.8c0-4.4-1-5.2-5.5-5.2h-19
				c-1.6-1.3-2.6-3.1-3.4-4.9c-11.2-12.2-4.7-20.3,2.3-31.7c1.3-1.6,2.6-3.1,3.6-4.9c2.9-5.2,4.4-10.9,4.4-16.9
				C105.8,31,90,15.4,70.5,15.4S34.9,31,34.3,50.5c0,7.8,2.6,15.6,7.5,21.6c7.5,12,20,21.6,0,36.9h-19c-2.6-0.3-5.2,1.6-5.5,4.2
				c0,0.3,0,0.8,0,1v8.1C17.4,125.6,19.8,125.1,23.4,124.8L23.4,124.8z"/>
                </g>
            </g>
        </g>
    </defs>
    <defs>
        <g id="accredit" transform="translate(704.000000, 525.000000)">
            <title>授权</title>
            <path id="Shape" d="M-642.1-406.6c0-3.6,0.3-7.6,1-11.2h-19.7c-3.9,0.3-7.6-1.6-9.5-5.3c-2-3.3-2-7.6,0-10.9c2-3.3,5.6-5.3,9.5-5.3
		h27.3c17.4-30.6,55-43.4,87.2-29.9c1.3,0.7,2.6,1,3.9,1.6V-504c0-5.3-2.3-10.5-5.9-14.1c-3.9-3.6-8.9-5.9-14.1-5.6h-110.6
		c-10.9,0-20.1,8.9-20.1,19.7v129.7c0,5.3,2.3,10.5,5.9,14.1c3.9,3.6,8.9,5.9,14.1,5.6h23l7.2-6.9l10.2-10.5
		C-638.9-382.2-642.1-394.4-642.1-406.6z M-668.5-485.2c2-2,4.9-3,7.6-3h21.4c3.9-0.3,7.6,1.6,9.5,5.3c2,3.3,2,7.6,0,10.9
		c-2,3.3-5.6,5.3-9.5,5.3h-21.4c-3,0-5.6-1-7.6-3c-2-2-3.3-4.6-3.3-7.6C-671.8-480.6-670.4-483.2-668.5-485.2z M-532.9-370.4
		c9.9-10.5,14.8-24.4,14.1-38.5c-0.7-14.1-6.9-27.6-17.8-37.2c-10.2-9.2-23.4-14.1-36.9-14.1c-29.6,0-54,23.7-54.3,53.6
		c0,13.5,5.3,26.3,14.5,36.2l-16.1,16.1l-3,3l19.4,3.9l6.3,21.1l27.6-27c3.9,0.3,8.2,0.3,12.2,0l27.6,27l6.6-19.1l19.4-6.3
		L-532.9-370.4z M-574.7-382.5c-13.5-0.3-24.4-11.5-24-25c0.3-13.5,11.2-24.4,24.7-24.4s24.4,11.2,24.4,24.7
		c0,6.6-2.6,12.8-7.6,17.4C-562.2-385.2-568.1-382.5-574.7-382.5z"/>
        </g>
    </defs>
    <defs>
        <g id="accredit-to-check" transform="translate(499.000000, 351.000000)">
            <title>授权审核</title>
            <path id="Fill-3" d="M-350.4-217.7c-5.2,0-9.1,3.9-9.1,9.1s3.9,9.1,9.1,9.1c5.2,0,9.1-3.9,9.1-9.1S-345.2-217.7-350.4-217.7
		 M-350.4-191c-9.8,0-17.6-7.8-17.6-17.6c0-9.8,7.8-17.6,17.6-17.6c9.8,0,17.6,7.8,17.6,17.6C-332.2-198.8-340.6-191-350.4-191"/>
            <g id="Group-7" transform="translate(15.037037, 15.686689)">
                <g id="Clip-6">
                </g>
                <path id="Fill-5" d="M-333.9-195L-333.9-195L-333.9-195z M-395.8-195l6.5,3.3c0.7,0.7,2,1.3,2,2l3.3,6.5l15-15.6c2-2,5.2-2,7.2,0
			l15,15.6l3.3-6.5c0.7-0.7,1.3-2,2-2l6.5-3.3l-7.8-7.8c-2-2-2-5.2,0-7.2c0.6-0.6,3.9-5,4.5-12.6c1.2-15.4-10.9-28.9-26.3-29
			c-15.1-0.1-26.9,11.6-26.9,26.7c0,9.1,4.6,15,4.6,15c1.3,2,1.3,3.9,0,5.9l-0.7,0.7L-395.8-195z M-383.3-172
			c-3.9-0.4-7.3-2.2-8.6-5.5l-2.6-5.9l-5.9-2.6c-0.7-0.7-2-1.3-2.6-2c-2-2-2.6-3.9-2.6-6.5s1.3-5.2,2.6-6.5l5.2-5.2
			c-2-3.9-3.9-9.8-3.9-17.6c0-20.4,16.7-36.8,37.2-36.4c20.8,0.4,37.1,18.6,35.6,39.3c-0.4,5.9-2.1,10.8-3.8,14.7l5.9,5.9l0,0
			c2,2,3.3,5.2,2.6,8.5s-2.6,5.9-5.2,7.2l-5.9,2.6l-2.6,5.9c-2,3.3-5.2,5.2-8.5,5.2c-2.6,0-5.2-1.3-6.5-2.6l-11.7-12.4l-10.1,10.7
			C-376.9-172.9-380.1-171.7-383.3-172L-383.3-172z"/>
            </g>
            <g id="Group-10" transform="translate(15.037037, 15.686689)">
                <g id="Clip-9">
                </g>
            </g>
            <path id="Fill-11" d="M-353-300.3h-102.8c-2.6,0-5.2-2-5.2-5.2c0-2.6,2-5.2,5.2-5.2H-353c2.6,0,5.2,2,5.2,5.2
		C-347.8-302.9-350.4-300.3-353-300.3"/>
            <path id="Fill-13" d="M-383.6-265.8h-72.2c-2.6,0-5.2-2-5.2-5.2c0-2.6,2-5.2,5.2-5.2h72.2c2.6,0,5.2,2,5.2,5.2
		C-378.4-268.4-380.3-265.8-383.6-265.8"/>
            <path id="Fill-15" d="M-421.9-228.1h-33.8c-2.6,0-5.2-2-5.2-5.2c0-2.6,2-5.2,5.2-5.2h33.8c2.6,0,5.2,2,5.2,5.2
		C-416.7-230.7-418.7-228.1-421.9-228.1"/>
            <g id="Group-19" transform="translate(0.000000, 0.131133)">
                <path id="Fill-17" d="M-398.5-191.6h-65.1c-8.5,0-15-6.5-15-15v-114.5c0-8.5,6.5-15,15-15h117.1c8.5,0,15,6.5,15,15v72.2
			c0,2.6,2,5.2,5.2,5.2c2.6,0,5.2-2,5.2-5.2v-72.2c0-13.7-11.1-25.4-25.4-25.4h-117.1c-13.7,0-25.4,11.1-25.4,25.4v114.5
			c0,13.7,11.1,25.4,25.4,25.4h65.1c2.6,0,5.2-2,5.2-5.2C-394-189-395.9-191.6-398.5-191.6"/>
            </g>
        </g>
    </defs>
    <defs>
        <g id="effective-merchant">
            <title>有效商户</title>
            <path id="path-1_1_" d="M24.4,10h151.2c7.9,0,14.4,6.5,14.4,14.4v151.2c0,7.9-6.5,14.4-14.4,14.4H24.4c-7.9,0-14.4-6.5-14.4-14.4
			V24.4C10,16.5,16.5,10,24.4,10z"/>
            <path id="形状_8" class="st0" fill="#fff" d="M102.2,106.3v-9.5h12.2l8.6-8.6l8.6,8.6h9.2c1.8-4,2.2-8.6,0.7-12.8v-0.2
			c0-0.2-0.2-0.4-0.2-0.5l-7.6-18.9c-1.4-4-5.2-6.5-9.5-6.3H70.5c-4.1-0.2-7.9,2.3-9.2,6.1l-8.1,19.3c0,0.2-0.2,0.4-0.2,0.4
			c-2.7,8.3,0.9,17.3,8.6,21.2c2.5,1.3,5.6,2,8.5,2c6.3-7.6,17.5-8.5,25-2.2c0.7,0.7,1.4,1.4,2.2,2.2
			C98.9,107,100.5,106.8,102.2,106.3z M114.4,138h-12.1v-12.1l-8.6-8.5l5.8-5.8c-0.7,0-1.4,0.2-2,0.2c-8.1-5.9-19.3-5.9-27.2,0.2
			c-2.7,0-5.2-0.5-7.7-1.6h-0.2l-0.4-0.2c-0.2,0-0.5,0-0.7,0c-1.8,0-3.2,1.4-3.2,3.2v17.1c0,2.2,0.9,4.3,2.5,5.9
			c1.6,1.6,3.6,2.3,5.9,2.3h49.1L114.4,138z"/>
            <path id="形状_8_拷贝" class="st0" fill="#fff" d="M140.5,109.9V99.6h-10.3l-7.4-7.2l-7.2,7.4h-10.3v10.3l-7.2,7.4l7.4,7.2v10.3h10.3
			l7.4,7.2l7.2-7.4h10.3v-10.3l7.2-7.4L140.5,109.9z M132.2,112.1l-11.9,12.4c-0.2,0.2-0.5,0.4-0.9,0.4s-0.7-0.2-0.9-0.4
			c0,0-4.5-4.5-4.5-4.7c-0.4-0.2-0.4-0.7-0.4-1.1c0-0.4,0.2-0.7,0.4-1.1c0.5-0.5,1.4-0.5,2,0l3.4,3.6l11-11.3
			c0.2-0.4,0.5-0.4,0.9-0.5c0.4,0,0.7,0.2,1.1,0.4l0,0C132.6,110.6,132.6,111.5,132.2,112.1L132.2,112.1z"/>
        </g>
    </defs>
    <!--2018-04-27-->
    <symbol  viewBox="0 0 200 200" id="depot">
        <title>仓库</title>
        <path d="M159.4,87c-9-5.8-41.4-25-54.7-33.8c-3-2.3-7.2-2.3-10.2,0L30.8,92.1c-4.2,3-6.3,8.1-5.4,13.2l3.6,70.3
		c0.2,5.1,4.5,9.2,9.6,9h120.8c5-0.3,9-4.1,9.6-9l3-69.7v-4.7C170.3,94.6,165.6,89.4,159.4,87L159.4,87z M138.4,161.8h-79
		c-2.3,0-4.2-1.9-4.2-4.2s1.9-4.2,4.2-4.2h79c2.2-0.1,4.1,1.7,4.2,3.9c0,0.1,0,0.2,0,0.2c0.1,2.1-1.5,3.9-3.6,4.2L138.4,161.8z
		 M138.4,140.1h-79c-2.3,0-4.2-1.9-4.2-4.2c0-2.3,1.9-4.2,4.2-4.2h79c2.2-0.1,4.1,1.7,4.2,3.9c0,0.1,0,0.2,0,0.2
		c0.1,2.1-1.5,3.9-3.6,4.2L138.4,140.1z M138.4,117.6h-79c-2.3,0-4.2-1.9-4.2-4.2c0-2.3,1.9-4.2,4.2-4.2h79c2.2-0.1,4.1,1.7,4.2,3.9
		c0,0.1,0,0.2,0,0.2c0.1,2.1-1.5,3.9-3.6,4.2L138.4,117.6z"/>
        <path d="M186.5,73.4L104.7,17c-3.1-2.1-7.2-2.1-10.3,0L14,71c-4.1,2.7-5.3,8.2-2.6,12.3c0.1,0.1,0.1,0.2,0.2,0.3
		c2.7,4.1,8.2,5.3,12.3,2.6c0.1-0.1,0.2-0.1,0.3-0.2L100,36.1l76.4,52.3c1.4,1,3.1,1.7,4.9,1.8c2.7,0.1,5.3-1.1,7-3.3
		c2.8-4.2,2-9.9-1.8-13.2L186.5,73.4L186.5,73.4z"/>
    </symbol>
    <symbol  viewBox="0 0 200 200" id="buy-back">
        <title>回购</title>
        <path d="M60.5,29.4L14.6,113c-6.2,11.2-6.2,24.8,0,35.9l19.2,34.7l56.4-101L60.5,29.4z M185.7,122.3l-48.3-86.7
	c-6.8-11.8-19.2-19.2-32.2-19.2H67.9l59.5,106H185.7z M77.2,134.7l-28.5,49h91.1c13,0,25.4-6.8,32.2-18.6l18-31H77.2V134.7z"/>
    </symbol>
    <symbol  viewBox="0 0 200 200" id="finance">
        <title>财务</title>
        <path d="M185,142.5c-16.7-3.3-35.1-12.6-40.4-15.4l-0.1,0h0l-0.1-0.1c-9.2-6-16.5-8.9-22.1-8.9c-4.6,0-8.5,2-10.6,5.6
		c-2.7,4.6-1.8,10.8,0.4,14.5c0.9,1.5,2.8,4.2,5.4,7.9l0.7,1l-1.2-0.1c-47-2.9-55.2-13.3-64.6-25.4l0,0c-2.9-3.7-5.8-7.5-9.9-11.3
		c-7.5-7-13.5-10.3-19-10.3c-4.2,0-7.8,1.9-10.2,5.4c-5,7.4-3.3,20.8-1.5,24.9c7.1,15.9,18.3,29,33.2,39.1
		c12.3,8.3,24.6,12.6,32.7,14.8c3.4,0.9,8.6,1.7,10.8,1.7c7.2,0,95.3,0.1,95.3,0.1c3.5,0,6.3-2.7,6.3-6.1v-31.6
		C190,145.6,187.9,143.1,185,142.5z"/>
        <path d="M99.5,6.2C57.6,6.2,23.7,40.1,23.7,82c0,2.6,0.1,5.2,0.4,7.7c8,0.3,16,4.5,25.1,13.1c4.6,4.4,8,8.7,11,12.5
		c6.9,8.9,12.6,16.1,39.3,19.7c-1-5.3-0.4-11.3,2.7-16.6c3.9-6.7,11.3-10.8,19.6-10.8c7.7,0,16.5,3.3,27.4,10.4
		c2.4,1.2,7.2,3.7,13.2,6.3c8.1-12.1,12.9-26.6,12.9-42.3C175.3,40.1,141.3,6.2,99.5,6.2z M125.8,72.8c2.9,0,5.3,2.4,5.3,5.3
		c0,2.9-2.4,5.3-5.3,5.3h-21v10.5c0,2.9-2.4,5.3-5.3,5.3c-2.9,0-5.3-2.4-5.3-5.3V83.3h-21c-2.9,0-5.3-2.4-5.3-5.3
		c0-2.9,2.4-5.3,5.3-5.3h21v-7.9h-21c-2.9,0-5.3-2.4-5.3-5.3c0-2.9,2.4-5.3,5.3-5.3h15L75.3,41.6c-2.1-2.1-2.1-5.4,0-7.4
		c2.1-2.1,5.4-2.1,7.4,0l16.7,16.7l16.7-16.7c2.1-2.1,5.4-2.1,7.4,0c2.1,2.1,2.1,5.4,0,7.4l-12.8,12.8h15c2.9,0,5.3,2.4,5.3,5.3
		c0,2.9-2.4,5.3-5.3,5.3h-21v7.9H125.8z"/>
    </symbol>
    <symbol  viewBox="0 0 200 200" id="purchase">
        <title>采购</title>
        <path d="M167.4,51.4h-63.2c-1.3,0-2.4-1.1-2.4-2.4v-14c0-1.3,1.1-2.4,2.4-2.4h63.2c1.3,0,2.4,1.1,2.4,2.4v14
		C169.7,50.4,168.7,51.4,167.4,51.4z"/>
        <path d="M117.3,70.7L58.2,53c-1.3-0.4-2-1.7-1.6-3l7.9-26.4c0.4-1.3,1.7-2,3-1.6l59.1,17.7c1.3,0.4,2,1.7,1.6,3l-7.9,26.4
		C119.9,70.4,118.6,71.1,117.3,70.7z"/>
        <path d="M177.1,43.9c3.4,0,6,0.5,7.9,1.4c1.9,0.9,3.2,2.1,4,3.5c0.8,1.4,1.2,2.8,1.1,4.4c-0.1,1.5-0.3,2.9-0.6,4s-1.1,3.4-2.3,6.9
		c-1.2,3.5-2.5,7.3-3.9,11.5c-1.5,4.2-2.9,8.3-4.3,12.4c-1.4,4.1-2.5,7.3-3.2,9.7c-1.6,5-3.6,8.4-6,10.4c-2.4,1.9-5.4,2.9-8.9,2.9
		H65.1l2.8,16.8h91.9c5.8,0,8.8,2.6,8.8,7.7c0,2.5-0.6,4.6-1.7,6.4c-1.2,1.8-3.4,2.7-6.9,2.7H64.4c-2.4,0-4.5-0.5-6.1-1.7
		c-1.7-1.1-3-2.6-4.1-4.4c-1.1-1.8-2-3.8-2.6-5.9c-0.7-2.1-1.2-4.1-1.5-5.9c-0.1-0.8-0.5-2.6-1-5.4c-0.6-2.9-1.2-6.4-2-10.7
		c-0.8-4.3-1.7-9.1-2.6-14.4c-1-5.3-2-10.6-2.9-16c-2.3-12.6-4.9-26.6-7.8-42H19.9c-1.8,0-3.4-0.5-4.5-1.4c-1.2-1-2.2-2.1-3-3.4
		c-0.8-1.3-1.3-2.7-1.6-4.2c-0.3-1.5-0.5-2.9-0.5-4.1c0-2.5,0.8-4.5,2.5-6.2c1.7-1.6,3.9-2.4,6.7-2.4h18.4c2.4,0,4.4,0.4,5.8,1.1
		c1.5,0.8,2.6,1.7,3.5,2.8c0.9,1.1,1.5,2.3,1.8,3.5c0.4,1.3,0.7,2.3,0.9,3.2c0.2,1,0.5,2.4,0.7,4.2c0.2,1.8,0.5,3.6,0.7,5.5
		c0.4,2.2,0.7,4.6,1.1,7.1H177.1z"/>
        <path d="M146.5,150c2.3,0,4.5,0.4,6.7,1.3c2.1,0.9,4,2.1,5.5,3.6s2.8,3.4,3.6,5.5c0.9,2.1,1.4,4.4,1.4,6.7c0,2.4-0.5,4.6-1.4,6.7
		s-2.1,4-3.6,5.5c-1.5,1.5-3.4,2.8-5.5,3.7s-4.3,1.4-6.7,1.4c-2.3,0-4.5-0.5-6.6-1.4c-2.1-0.9-3.9-2.2-5.4-3.7
		c-1.5-1.5-2.8-3.4-3.6-5.5c-0.9-2.1-1.4-4.3-1.4-6.7s0.5-4.6,1.4-6.7s2.1-3.9,3.6-5.5c1.5-1.5,3.3-2.8,5.4-3.6
		C142,150.4,144.2,150,146.5,150z M70.6,149.6c2.3,0,4.5,0.4,6.6,1.3c2.1,0.9,3.9,2.1,5.5,3.6c1.6,1.5,2.8,3.4,3.6,5.5
		c0.9,2.1,1.3,4.4,1.3,6.7c0,2.4-0.4,4.6-1.3,6.7c-0.9,2.1-2.1,4-3.6,5.5c-1.6,1.5-3.4,2.8-5.5,3.7c-2.1,0.9-4.3,1.4-6.6,1.4
		c-2.4,0-4.7-0.5-6.7-1.4s-3.8-2.2-5.4-3.7s-2.8-3.4-3.6-5.5c-0.9-2.1-1.3-4.4-1.3-6.7c0-2.4,0.4-4.6,1.3-6.7
		c0.9-2.1,2.1-3.9,3.6-5.5c1.6-1.5,3.4-2.8,5.4-3.6C65.9,150.1,68.2,149.6,70.6,149.6z"/>
    </symbol>
    <symbol  viewBox="0 0 200 200" id="retail">
        <title>零售</title>
        <path d="M180,73.2H19.9c-5.5,0-9.9,4.4-9.9,9.9s4.4,9.9,9.9,9.9h4.3L36,166.2c0,9.4,7.6,17,17,17h94c9.4,0,17-7.6,17-17l11.8-73.3
	h4.3c5.5,0,9.9-4.4,9.9-9.9C189.9,77.6,185.5,73.2,180,73.2L180,73.2z M76.6,150c0,5.5-3.7,6.7-6,6.7c-2.4,0-5.8-1.2-5.8-6.7v-41.1
	c0-5.5,3.3-7.1,5.8-7.1s6,1.6,6,7.1V150z M107.9,150c0,5.5-3.7,6.7-6,6.7c-2.4,0-5.8-1.2-5.8-6.7v-41.1c0-5.5,3.3-7.1,5.8-7.1
	s6,1.6,6,7.1V150z M139.2,150c0,5.5-3.7,6.7-6,6.7s-5.8-1.2-5.8-6.7v-41.1c0-5.5,3.3-7.1,5.8-7.1s6,1.6,6,7.1V150z M143.2,65.5
	L143.2,65.5c5.3,0,8.6-5.7,6-10.2L131,23.4c-2.6-4.8-7.2-5-10-3.5c-2.8,1.5-4.5,5-1.9,9.8L137.2,62
	C138.4,64.1,140.7,65.5,143.2,65.5z M80.4,29.6c2.6-4.8,1-8.4-2.1-10c-3.1-1.7-7.4-0.8-10,3.9L50.8,55c-2.6,4.7,0.8,10.4,6.2,10.4h0
	c2.6,0,5-1.4,6.2-3.7L80.4,29.6z"/>
    </symbol>
</svg>